<mxfile host="app.diagrams.net" modified="2023-09-08T13:07:29.871Z" agent="Mozilla/5.0 (Windows NT 10.0; Win64; x64) AppleWebKit/537.36 (KHTML, like Gecko) Chrome/116.0.0.0 Safari/537.36" etag="9dQCmA0dai8JIqZP58Lv" version="21.7.2" type="github">
  <diagram name="Page-1" id="p06Nskeuj_fNzVhQiGaa">
    <mxGraphModel dx="607" dy="348" grid="1" gridSize="10" guides="1" tooltips="1" connect="1" arrows="1" fold="1" page="1" pageScale="1" pageWidth="827" pageHeight="1169" math="0" shadow="0">
      <root>
        <mxCell id="0" />
        <mxCell id="1" parent="0" />
        <mxCell id="KpmXECyhZIi6u8O-qsFD-2" value="&lt;p style=&quot;margin:0px;margin-top:4px;text-align:center;&quot;&gt;&lt;b&gt;Personne&lt;/b&gt;&lt;/p&gt;&lt;hr size=&quot;1&quot;&gt;&lt;p style=&quot;margin:0px;margin-left:4px;&quot;&gt;&lt;br&gt;&lt;/p&gt;-IDPersonne&lt;br&gt;-Prénom:String&lt;br&gt;-Nom : String&lt;br&gt;-SonGroupes&lt;br&gt;&lt;hr size=&quot;1&quot;&gt;&lt;p style=&quot;margin:0px;margin-left:4px;&quot;&gt;&amp;nbsp;&lt;/p&gt;+AjouterPersonneDunGroupe: void&lt;br&gt;+RetirerpersonneDunGroupe:void&lt;br&gt;+ObteniDroitDaccesPersonne: void&lt;span style=&quot;background-color: initial;&quot;&gt;&lt;br&gt;&lt;/span&gt;" style="verticalAlign=top;align=left;overflow=fill;fontSize=12;fontFamily=Helvetica;html=1;whiteSpace=wrap;" vertex="1" parent="1">
          <mxGeometry x="150" y="110" width="190" height="190" as="geometry" />
        </mxCell>
        <mxCell id="KpmXECyhZIi6u8O-qsFD-3" value="&lt;p style=&quot;margin:0px;margin-top:4px;text-align:center;&quot;&gt;&lt;b&gt;Badge&lt;/b&gt;&lt;/p&gt;&lt;hr size=&quot;1&quot;&gt;&lt;p style=&quot;margin:0px;margin-left:4px;&quot;&gt;&lt;br&gt;&lt;/p&gt;-IDPersonne&lt;br&gt;+Prénom:String&lt;br&gt;+Nom : String&lt;br&gt;+SonGroupes&lt;br&gt;&lt;hr size=&quot;1&quot;&gt;&lt;p style=&quot;margin:0px;margin-left:4px;&quot;&gt;&amp;nbsp;&lt;/p&gt;+AjouterPersonneDunGroupe: void&lt;br&gt;+RetirerpersonneDunGroupe:void&lt;br&gt;+ObteniDroitDaccesPersonne: void&lt;span style=&quot;background-color: initial;&quot;&gt;&lt;br&gt;&lt;/span&gt;" style="verticalAlign=top;align=left;overflow=fill;fontSize=12;fontFamily=Helvetica;html=1;whiteSpace=wrap;" vertex="1" parent="1">
          <mxGeometry x="20" y="250" width="190" height="190" as="geometry" />
        </mxCell>
        <mxCell id="KpmXECyhZIi6u8O-qsFD-4" value="&lt;p style=&quot;margin:0px;margin-top:4px;text-align:center;&quot;&gt;&lt;b&gt;GroupeDePersonnes&lt;/b&gt;&lt;br&gt;&lt;/p&gt;&lt;hr size=&quot;1&quot;&gt;&lt;p style=&quot;margin:0px;margin-left:4px;&quot;&gt;&lt;br&gt;&lt;/p&gt;-IDGroupe:int&lt;br&gt;-ListeDePersonneMembre:String&lt;br&gt;&lt;br&gt;&lt;hr size=&quot;1&quot;&gt;&lt;p style=&quot;margin:0px;margin-left:4px;&quot;&gt;&amp;nbsp;&lt;/p&gt;+AjouterPersonneDunGroupe: void&lt;br&gt;+RetirerpersonneDunGroupe:void&lt;br&gt;+ObteniDroitDaccesGroupe: void&lt;span style=&quot;background-color: initial;&quot;&gt;&lt;br&gt;&lt;/span&gt;" style="verticalAlign=top;align=left;overflow=fill;fontSize=12;fontFamily=Helvetica;html=1;whiteSpace=wrap;" vertex="1" parent="1">
          <mxGeometry x="330" y="200" width="190" height="190" as="geometry" />
        </mxCell>
      </root>
    </mxGraphModel>
  </diagram>
</mxfile>
